<?xml version="1.0" encoding="iso-8859-1"?>
<!-- Generator: Adobe Illustrator 15.1.0, SVG Export Plug-In . SVG Version: 6.00 Build 0)  -->
<!DOCTYPE svg PUBLIC "-//W3C//DTD SVG 1.1//EN" "http://www.w3.org/Graphics/SVG/1.1/DTD/svg11.dtd">
<svg version="1.1" id="Layer_1" xmlns="http://www.w3.org/2000/svg" xmlns:xlink="http://www.w3.org/1999/xlink" x="0px" y="0px"
	 width="500px" height="200px" viewBox="0 0 500 200" style="enable-background:new 0 0 500 200;" xml:space="preserve">
<g>
	<g>
		<path style="fill:#29ABE2;" d="M158.374,25.231c0,1.547-1.267,2.81-2.811,2.81h-43.391c-1.227,0-2.416,0.042-3.642,0.159
			c-0.517,0.043-1.069,0.12-1.584,0.202c-0.315,0.039-0.672,0.078-0.99,0.116c-1.108,0.158-2.217,0.397-3.284,0.673
			c-0.438,0.082-0.872,0.2-1.268,0.316c-0.79,0.24-1.624,0.475-2.415,0.754c-0.592,0.197-1.227,0.436-1.821,0.672c0,0,0,0-0.04,0
			c-0.515-0.514-1.069-0.952-1.622-1.384c-0.437-0.397-0.91-0.754-1.386-1.07c-0.634-0.514-1.345-1.029-2.021-1.466
			c1.586-0.75,3.169-1.423,4.79-1.98c0.834-0.273,1.665-0.552,2.457-0.792c0.554-0.158,1.109-0.316,1.662-0.433
			c1.506-0.398,3.01-0.673,4.555-0.912c0.235-0.039,0.514-0.078,0.79-0.078c0.832-0.12,1.662-0.197,2.494-0.279
			c0.238,0,0.476,0,0.713-0.039c0.872-0.039,1.742-0.081,2.614-0.081h43.391C157.107,22.42,158.374,23.688,158.374,25.231z"/>
		<path style="fill:#29ABE2;" d="M158.453,54.054c0,6.889-5.583,12.472-12.432,12.472h-31.909c0-0.158,0-0.355-0.039-0.514
			c-0.08-1.743-0.238-3.444-0.514-5.15h32.461c3.722,0,6.771-3.046,6.771-6.808c0-3.719-3.049-6.77-6.771-6.77h-33.849
			c-0.634,0-1.227,0.039-1.861,0.081v-0.158l-2.376,0.471c-3.522,0.754-6.85,2.378-9.539,4.713l-0.555,0.476l-0.556,0.436
			l0.042,0.077v0.039c-0.358,0.279-0.673,0.634-0.99,1.033c-0.476,0.471-0.872,0.989-1.268,1.542
			c-0.315,0.437-0.632,0.871-0.911,1.307c-0.117,0.198-0.276,0.433-0.394,0.673c-0.159,0.236-0.318,0.514-0.437,0.75
			c-0.039-0.116-0.08-0.236-0.119-0.314c-0.118-0.437-0.277-0.873-0.475-1.269c-0.592-1.545-1.345-3.088-2.217-4.516
			c0-0.039,0-0.039,0-0.039c0.99-1.383,2.139-2.651,3.404-3.799c0.675-0.635,1.386-1.227,2.139-1.783
			c2.416-1.86,5.147-3.243,8.038-4.156c2.611-0.792,5.305-1.226,8.076-1.226h33.849C152.871,41.624,158.453,47.207,158.453,54.054z"
			/>
		<path style="fill:#9579FD;" d="M110.193,68.505v91.171c0,1.549-1.268,2.813-2.81,2.813c-1.586,0-2.851-1.264-2.851-2.813V68.505
			c0-0.557,0-1.109-0.039-1.662c0-0.556-0.041-1.109-0.12-1.662c0-0.202,0-0.438-0.039-0.636c-0.04-0.671-0.12-1.306-0.237-1.939
			c-0.12-0.754-0.238-1.504-0.358-2.216c-0.118-0.476-0.236-0.951-0.355-1.427c-0.356-1.464-0.791-2.93-1.345-4.396
			c0.117-0.115,0.276-0.235,0.435-0.316c0.157-0.117,0.316-0.237,0.475-0.357c0.355-0.235,0.751-0.432,1.148-0.634
			c0.159-0.115,0.355-0.196,0.514-0.273c0.396-0.202,0.792-0.361,1.187-0.514c0.279-0.12,0.555-0.24,0.834-0.318
			c0.156-0.081,0.315-0.12,0.514-0.159c0.238,0.592,0.436,1.226,0.631,1.822c0.199,0.553,0.397,1.105,0.517,1.662
			c0.197,0.553,0.355,1.105,0.474,1.662c0.199,0.751,0.357,1.505,0.515,2.297C109.877,62.409,110.193,65.455,110.193,68.505z"/>
		<path style="fill:#9579FD;" d="M100.296,40.039c-0.832,0.356-1.662,0.711-2.455,1.187c-0.198,0.082-0.397,0.202-0.594,0.318
			c-0.437,0.197-0.83,0.436-1.227,0.715c-0.237,0.116-0.514,0.316-0.751,0.471c-0.159-0.197-0.318-0.433-0.555-0.63
			c-0.396-0.514-0.872-1.031-1.346-1.503c-0.673-0.754-1.386-1.426-2.139-2.061v-0.039l0.08-0.039l-1.94-1.546
			c-2.812-2.215-5.859-4.079-9.106-5.463l-1.188-0.514l-0.039,0.039c-4.752-1.941-9.78-2.932-14.926-2.932H30.698
			c-3.762,0-6.811,3.051-6.811,6.813c0,3.72,3.049,6.77,6.811,6.77h33.413c0.91,0,1.782,0.039,2.692,0.159
			c0.08,0,0.159,0,0.237,0.039c0.594,0.039,1.147,0.119,1.743,0.235c0.276,0.042,0.514,0.081,0.79,0.158
			c-0.196,0.359-0.434,0.716-0.592,1.071c-0.318,0.477-0.594,0.952-0.872,1.465c-0.474,0.871-0.91,1.782-1.345,2.692
			c-0.159-0.039-0.356-0.039-0.514-0.039c-0.714-0.081-1.426-0.12-2.139-0.12H30.698c-6.89,0-12.471-5.583-12.471-12.43
			c0-6.889,5.581-12.434,12.471-12.434h33.413c8.077,0,16.034,2.099,23.041,6.179c2.969,1.701,5.78,3.762,8.275,6.097
			c0.753,0.712,1.504,1.466,2.217,2.215c0.236,0.278,0.514,0.557,0.753,0.831c0.514,0.557,1.028,1.148,1.463,1.743
			C100.059,39.684,100.217,39.842,100.296,40.039z"/>
		<path style="fill:#9579FD;" d="M90.952,68.505v81.592c0,6.851-5.582,12.434-12.43,12.434c-6.849,0-12.432-5.583-12.432-12.434
			V66.526H20.721c-1.583,0-2.852-1.268-2.852-2.853c0-1.543,1.268-2.812,2.852-2.812h43.39c0.238,0,0.514,0,0.751,0.042
			c3.921,0.356,6.889,3.642,6.889,7.601v81.592c0,3.725,3.049,6.771,6.771,6.771c3.759,0,6.77-3.046,6.77-6.771V68.505
			c0-0.715-0.042-1.427-0.12-2.137c-0.079-0.715-0.159-1.427-0.315-2.1c-0.079-0.394-0.159-0.754-0.278-1.148
			c-0.08-0.475-0.239-0.952-0.396-1.384c-0.198-0.715-0.474-1.388-0.792-2.022c-0.04-0.116-0.079-0.235-0.158-0.355
			c-0.279-0.591-0.594-1.187-0.952-1.739c-0.355-0.673-0.791-1.307-1.266-1.902c-0.318-0.476-0.673-0.909-1.108-1.345
			c-0.199-0.279-0.475-0.553-0.713-0.754c-0.08-0.116-0.12-0.198-0.2-0.237c0-0.038,0-0.038,0-0.038
			c0.397-0.869,0.834-1.743,1.307-2.575c0.438-0.75,0.872-1.503,1.348-2.254c0.079-0.081,0.117-0.159,0.157-0.201
			c0.08,0.042,0.119,0.081,0.198,0.159c0.514,0.475,1.069,0.989,1.544,1.504c1.069,1.148,2.059,2.377,2.929,3.684
			C89.409,58.052,90.952,63.201,90.952,68.505z"/>
		<path style="fill:#29ABE2;" d="M84.974,38.574c-0.83,0.754-1.662,1.545-2.414,2.416c-0.159,0.12-0.279,0.278-0.438,0.437
			c-0.355,0.395-0.71,0.832-1.068,1.264l-0.039-0.039l-0.594,0.793c-0.199,0.275-0.396,0.552-0.593,0.792
			c-2.06,2.69-3.762,5.699-5.068,8.866c-0.198,0.436-0.356,0.873-0.515,1.349c-0.316,0.788-0.554,1.581-0.792,2.374
			c-0.356,1.148-0.633,2.296-0.871,3.444c-0.04,0.078-0.04,0.159-0.04,0.237c-0.119-0.078-0.198-0.159-0.238-0.237
			c-0.197-0.196-0.395-0.397-0.632-0.595c-0.832-0.711-1.821-1.345-2.89-1.821c-0.437-0.198-0.872-0.355-1.347-0.514
			c0.277-1.028,0.553-2.058,0.91-3.047c0.12-0.437,0.277-0.831,0.437-1.229c0.08-0.279,0.159-0.514,0.276-0.75
			c0.198-0.634,0.436-1.268,0.714-1.902c0.632-1.465,1.344-2.887,2.097-4.275c0.793-1.385,1.624-2.691,2.534-3.998
			c0.476-0.673,0.949-1.346,1.466-2.019c0.871-1.109,1.781-2.218,2.81-3.248c0.315-0.355,0.673-0.753,1.029-1.07
			c0.04-0.078,0.079-0.117,0.159-0.198c0.079,0.042,0.158,0.081,0.238,0.12c0.634,0.279,1.227,0.595,1.821,0.952
			c0.355,0.158,0.673,0.355,1.028,0.552C83.63,37.665,84.301,38.098,84.974,38.574z"/>
	</g>
	<g>
		<path style="fill:#29ABE2;" d="M173.301,162.219c-0.639-1.809-1.048-4.495-1.226-8.047c-2.236,2.917-5.087,5.162-8.55,6.738
			c-3.465,1.581-7.131,2.377-11.001,2.377c-5.541,0-10.025-1.548-13.453-4.638c-3.427-3.089-5.14-6.998-5.14-11.721
			c0-5.612,2.336-10.049,7.006-13.32c4.671-3.268,11.178-4.897,19.524-4.897h11.56v-6.554c0-4.121-1.271-7.363-3.808-9.725
			c-2.54-2.361-6.242-3.542-11.108-3.542c-4.44,0-8.115,1.137-11.028,3.412c-2.912,2.271-4.368,5.005-4.368,8.203l-6.393-0.054
			c0-4.583,2.132-8.555,6.393-11.908c4.262-3.354,9.5-5.034,15.715-5.034c6.428,0,11.498,1.608,15.21,4.821
			c3.712,3.216,5.621,7.698,5.728,13.451v27.275c0,5.579,0.585,9.751,1.757,12.523v0.638H173.301z M153.271,157.636
			c4.26,0,8.071-1.028,11.426-3.089s5.798-4.812,7.325-8.258v-12.681h-11.399c-6.358,0.074-11.33,1.237-14.918,3.491
			c-3.587,2.254-5.379,5.354-5.379,9.299c0,3.231,1.198,5.911,3.595,8.038C146.317,156.569,149.434,157.636,153.271,157.636z"/>
		<path style="fill:#29ABE2;" d="M241.704,133.983c0,8.984-1.99,16.114-5.966,21.387c-3.979,5.278-9.307,7.917-15.983,7.917
			c-7.885,0-13.921-2.774-18.112-8.315v29.406h-6.339v-79.801h5.915l0.319,8.15c4.155-6.144,10.174-9.218,18.058-9.218
			c6.892,0,12.298,2.61,16.223,7.833c3.924,5.22,5.887,12.465,5.887,21.734V133.983z M235.311,132.868
			c0-7.354-1.509-13.162-4.527-17.424c-3.02-4.264-7.228-6.394-12.627-6.394c-3.906,0-7.262,0.94-10.067,2.821
			c-2.808,1.882-4.955,4.62-6.447,8.205v27.649c1.527,3.304,3.71,5.825,6.553,7.566c2.841,1.741,6.196,2.611,10.067,2.611
			c5.363,0,9.546-2.139,12.548-6.423C233.812,147.204,235.311,140.996,235.311,132.868z"/>
		<path style="fill:#29ABE2;" d="M278.141,163.287c-4.897,0-9.329-1.211-13.291-3.625c-3.957-2.416-7.038-5.779-9.242-10.097
			c-2.201-4.316-3.303-9.155-3.303-14.518v-2.29c0-5.54,1.075-10.53,3.226-14.97c2.146-4.439,5.138-7.931,8.975-10.469
			c3.836-2.537,7.991-3.81,12.466-3.81c6.998,0,12.545,2.389,16.647,7.163c4.102,4.779,6.152,11.305,6.152,19.578v3.571h-41.124
			v1.226c0,6.536,1.871,11.981,5.618,16.328c3.747,4.352,8.462,6.528,14.147,6.528c3.407,0,6.418-0.623,9.029-1.866
			c2.611-1.243,4.98-3.231,7.111-5.968l3.994,3.039C293.858,159.89,287.057,163.287,278.141,163.287z M276.971,108.947
			c-4.793,0-8.834,1.756-12.121,5.271c-3.281,3.515-5.282,8.239-5.993,14.172h34.576v-0.696c-0.178-5.537-1.758-10.049-4.742-13.531
			C285.709,110.688,281.8,108.947,276.971,108.947z"/>
		<path style="fill:#29ABE2;" d="M346.705,147.569c0-3.162-1.269-5.702-3.81-7.621c-2.539-1.918-6.363-3.419-11.48-4.5
			c-5.112-1.082-9.084-2.325-11.905-3.73c-2.824-1.401-4.917-3.117-6.286-5.138c-1.368-2.026-2.051-4.479-2.051-7.354
			c0-4.548,1.898-8.301,5.7-11.266c3.799-2.967,8.664-4.451,14.596-4.451c6.428,0,11.588,1.589,15.475,4.767
			c3.889,3.181,5.835,7.328,5.835,12.44h-6.393c0-3.374-1.411-6.181-4.237-8.414c-2.824-2.241-6.383-3.355-10.68-3.355
			c-4.192,0-7.559,0.93-10.095,2.796c-2.541,1.86-3.809,4.286-3.809,7.271c0,2.876,1.056,5.106,3.169,6.686
			c2.111,1.58,5.968,3.026,11.561,4.342c5.593,1.313,9.785,2.717,12.573,4.207c2.789,1.495,4.855,3.287,6.205,5.382
			c1.351,2.097,2.024,4.633,2.024,7.619c0,4.867-1.964,8.755-5.886,11.666c-3.926,2.91-9.049,4.372-15.372,4.372
			c-6.71,0-12.156-1.632-16.326-4.878c-4.174-3.251-6.26-7.36-6.26-12.334h6.393c0.248,3.73,1.821,6.631,4.712,8.712
			c2.896,2.076,6.723,3.117,11.48,3.117c4.441,0,8.028-0.98,10.762-2.933C345.339,153.021,346.705,150.551,346.705,147.569z"/>
		<path style="fill:#29ABE2;" d="M377.339,89.82v14.757h11.933v5.22h-11.933v38.453c0,3.201,0.577,5.583,1.733,7.148
			c1.153,1.56,3.076,2.346,5.777,2.346c1.066,0,2.79-0.178,5.168-0.533l0.268,5.172c-1.671,0.602-3.942,0.904-6.821,0.904
			c-4.367,0-7.546-1.273-9.534-3.815c-1.991-2.535-2.984-6.274-2.984-11.212v-38.463h-10.603v-5.22h10.603V89.82H377.339z"/>
		<path style="fill:#29ABE2;" d="M429.123,110.009c-1.354-0.247-2.789-0.372-4.317-0.372c-3.979,0-7.342,1.11-10.095,3.332
			c-2.753,2.215-4.715,5.442-5.885,9.67v39.58h-6.343v-57.642h6.235l0.107,9.161c3.371-6.817,8.789-10.229,16.247-10.229
			c1.776,0,3.176,0.231,4.208,0.691L429.123,110.009z"/>
		<path style="fill:#29ABE2;" d="M458.423,153.057l16.833-48.479h6.874l-24.615,67.44l-1.277,2.984
			c-3.161,6.998-8.044,10.5-14.651,10.5c-1.526,0-3.159-0.253-4.899-0.748l-0.052-5.275l3.302,0.32c3.126,0,5.654-0.775,7.594-2.315
			c1.933-1.549,3.576-4.205,4.925-7.967l2.822-7.777l-21.734-57.162h6.977L458.423,153.057z"/>
	</g>
</g>
</svg>
