<?xml version="1.0" encoding="iso-8859-1"?>
<!-- Generator: Adobe Illustrator 15.1.0, SVG Export Plug-In . SVG Version: 6.00 Build 0)  -->
<!DOCTYPE svg PUBLIC "-//W3C//DTD SVG 1.1//EN" "http://www.w3.org/Graphics/SVG/1.1/DTD/svg11.dtd">
<svg version="1.1" id="Layer_1" xmlns="http://www.w3.org/2000/svg" xmlns:xlink="http://www.w3.org/1999/xlink" x="0px" y="0px"
	 width="200px" height="200px" viewBox="0 0 200 200" style="enable-background:new 0 0 200 200;" xml:space="preserve">
<g>
	<path style="fill:#29ABE2;" d="M170.213,32.756c0,1.547-1.267,2.81-2.811,2.81h-43.391c-1.227,0-2.415,0.043-3.642,0.159
		c-0.517,0.043-1.069,0.12-1.584,0.201c-0.315,0.039-0.673,0.078-0.99,0.116c-1.109,0.158-2.218,0.397-3.285,0.673
		c-0.438,0.082-0.871,0.2-1.268,0.316c-0.79,0.24-1.624,0.476-2.415,0.755c-0.593,0.197-1.227,0.436-1.821,0.672c0,0,0,0-0.039,0
		c-0.516-0.514-1.069-0.951-1.623-1.384c-0.437-0.397-0.91-0.755-1.386-1.07c-0.634-0.515-1.345-1.029-2.021-1.466
		c1.586-0.751,3.17-1.423,4.79-1.98c0.834-0.273,1.665-0.552,2.456-0.792c0.555-0.158,1.109-0.316,1.662-0.433
		c1.506-0.398,3.01-0.674,4.555-0.912c0.234-0.039,0.514-0.077,0.79-0.077c0.832-0.12,1.662-0.197,2.493-0.279
		c0.238,0,0.477,0,0.713-0.039c0.873-0.038,1.742-0.081,2.614-0.081h43.391C168.946,29.944,170.213,31.213,170.213,32.756z"/>
	<path style="fill:#29ABE2;" d="M170.292,61.578c0,6.889-5.582,12.472-12.432,12.472h-31.908c0-0.157,0-0.354-0.039-0.514
		c-0.08-1.743-0.238-3.444-0.514-5.15h32.461c3.722,0,6.771-3.046,6.771-6.808c0-3.72-3.049-6.77-6.771-6.77h-33.849
		c-0.634,0-1.227,0.039-1.86,0.081v-0.158l-2.377,0.471c-3.521,0.754-6.85,2.379-9.539,4.714l-0.555,0.476l-0.556,0.436l0.042,0.077
		v0.039c-0.358,0.279-0.674,0.635-0.99,1.033c-0.477,0.472-0.873,0.989-1.269,1.542c-0.315,0.437-0.632,0.871-0.911,1.307
		c-0.117,0.198-0.276,0.434-0.394,0.673c-0.159,0.236-0.317,0.515-0.437,0.751c-0.039-0.116-0.08-0.236-0.119-0.314
		c-0.118-0.437-0.277-0.873-0.475-1.269c-0.593-1.545-1.346-3.088-2.217-4.516c0-0.038,0-0.038,0-0.038
		c0.99-1.383,2.139-2.651,3.403-3.8c0.675-0.635,1.386-1.227,2.139-1.783c2.416-1.859,5.147-3.242,8.038-4.155
		c2.61-0.793,5.305-1.226,8.075-1.226h33.849C164.71,49.148,170.292,54.731,170.292,61.578z"/>
	<path style="fill:#9579FD;" d="M122.032,76.029v91.172c0,1.549-1.268,2.813-2.811,2.813c-1.586,0-2.851-1.264-2.851-2.813V76.029
		c0-0.557,0-1.109-0.039-1.662c0-0.556-0.041-1.109-0.12-1.661c0-0.202,0-0.438-0.039-0.636c-0.039-0.672-0.119-1.306-0.236-1.939
		c-0.121-0.755-0.238-1.505-0.358-2.216c-0.118-0.476-0.236-0.951-0.355-1.428c-0.356-1.464-0.791-2.93-1.345-4.396
		c0.117-0.115,0.275-0.235,0.435-0.316c0.157-0.116,0.316-0.236,0.476-0.356c0.354-0.235,0.751-0.433,1.148-0.634
		c0.158-0.115,0.354-0.196,0.514-0.273c0.396-0.202,0.792-0.361,1.186-0.515c0.279-0.12,0.556-0.24,0.835-0.317
		c0.155-0.081,0.315-0.12,0.514-0.159c0.237,0.592,0.436,1.226,0.632,1.822c0.199,0.553,0.396,1.105,0.517,1.662
		c0.197,0.553,0.354,1.105,0.474,1.661c0.199,0.751,0.357,1.506,0.516,2.298C121.716,69.934,122.032,72.979,122.032,76.029z"/>
	<path style="fill:#9579FD;" d="M112.136,47.563c-0.832,0.356-1.662,0.712-2.455,1.187c-0.198,0.082-0.396,0.202-0.594,0.318
		c-0.438,0.197-0.83,0.436-1.228,0.715c-0.237,0.116-0.515,0.316-0.751,0.472c-0.159-0.197-0.318-0.433-0.556-0.631
		c-0.396-0.514-0.872-1.031-1.346-1.503c-0.673-0.754-1.386-1.427-2.139-2.061v-0.039l0.08-0.039l-1.94-1.546
		c-2.812-2.216-5.859-4.079-9.105-5.463l-1.188-0.515l-0.038,0.039c-4.753-1.94-9.78-2.932-14.926-2.932H42.537
		c-3.762,0-6.811,3.052-6.811,6.813c0,3.72,3.049,6.77,6.811,6.77H75.95c0.91,0,1.781,0.039,2.691,0.159c0.08,0,0.16,0,0.238,0.038
		c0.594,0.039,1.146,0.119,1.742,0.235c0.275,0.042,0.514,0.081,0.79,0.158c-0.196,0.359-0.434,0.716-0.593,1.071
		c-0.317,0.477-0.594,0.951-0.871,1.465c-0.475,0.871-0.91,1.782-1.346,2.692c-0.159-0.039-0.356-0.039-0.514-0.039
		c-0.715-0.081-1.426-0.12-2.139-0.12H42.537c-6.89,0-12.471-5.583-12.471-12.43c0-6.89,5.581-12.435,12.471-12.435H75.95
		c8.076,0,16.033,2.1,23.04,6.179c2.969,1.701,5.78,3.762,8.274,6.097c0.754,0.712,1.505,1.466,2.218,2.216
		c0.236,0.278,0.515,0.557,0.753,0.831c0.514,0.557,1.028,1.148,1.463,1.743C111.897,47.208,112.056,47.366,112.136,47.563z"/>
	<path style="fill:#9579FD;" d="M102.791,76.029v81.593c0,6.851-5.581,12.434-12.43,12.434s-12.433-5.583-12.433-12.434V74.05H32.56
		c-1.583,0-2.852-1.268-2.852-2.853c0-1.543,1.269-2.812,2.852-2.812H75.95c0.237,0,0.514,0,0.751,0.043
		c3.921,0.356,6.89,3.642,6.89,7.601v81.593c0,3.725,3.049,6.771,6.771,6.771c3.759,0,6.77-3.046,6.77-6.771V76.029
		c0-0.715-0.042-1.427-0.12-2.137c-0.078-0.716-0.158-1.428-0.314-2.1c-0.08-0.395-0.159-0.755-0.278-1.148
		c-0.08-0.476-0.239-0.952-0.396-1.385c-0.198-0.715-0.474-1.388-0.792-2.021c-0.039-0.116-0.078-0.235-0.157-0.355
		c-0.278-0.592-0.594-1.188-0.952-1.739c-0.354-0.673-0.79-1.308-1.266-1.902c-0.317-0.477-0.672-0.909-1.107-1.346
		c-0.199-0.279-0.475-0.553-0.713-0.754c-0.08-0.116-0.12-0.198-0.2-0.237c0-0.038,0-0.038,0-0.038
		c0.397-0.869,0.834-1.743,1.308-2.575c0.438-0.749,0.871-1.503,1.348-2.254c0.079-0.081,0.117-0.158,0.157-0.2
		c0.08,0.042,0.119,0.081,0.198,0.158c0.514,0.476,1.068,0.989,1.544,1.505c1.069,1.147,2.059,2.377,2.929,3.684
		C101.248,65.576,102.791,70.726,102.791,76.029z"/>
	<path style="fill:#29ABE2;" d="M96.813,46.099c-0.83,0.754-1.662,1.545-2.414,2.415c-0.158,0.12-0.279,0.278-0.438,0.438
		c-0.355,0.395-0.711,0.831-1.068,1.264l-0.039-0.038l-0.594,0.793c-0.199,0.274-0.396,0.552-0.593,0.792
		c-2.06,2.69-3.762,5.699-5.068,8.866c-0.198,0.436-0.356,0.872-0.515,1.349c-0.316,0.788-0.555,1.581-0.792,2.374
		c-0.356,1.147-0.634,2.296-0.87,3.443c-0.041,0.078-0.041,0.159-0.041,0.237c-0.118-0.078-0.197-0.159-0.237-0.237
		c-0.197-0.196-0.396-0.397-0.632-0.595c-0.832-0.712-1.822-1.346-2.891-1.821c-0.437-0.197-0.871-0.354-1.347-0.514
		c0.277-1.028,0.554-2.058,0.91-3.047c0.12-0.437,0.277-0.831,0.437-1.229c0.08-0.279,0.158-0.515,0.275-0.751
		c0.198-0.634,0.437-1.268,0.715-1.902c0.632-1.465,1.344-2.887,2.098-4.275c0.793-1.385,1.623-2.69,2.533-3.998
		c0.476-0.673,0.949-1.346,1.466-2.019c0.87-1.109,1.78-2.218,2.81-3.247c0.315-0.355,0.674-0.753,1.029-1.07
		c0.04-0.078,0.079-0.117,0.159-0.198c0.079,0.043,0.157,0.081,0.237,0.12c0.635,0.279,1.227,0.595,1.821,0.952
		c0.354,0.158,0.673,0.354,1.028,0.552C95.469,45.189,96.14,45.622,96.813,46.099z"/>
</g>
</svg>
